<?xml version="1.0" encoding="UTF-8" standalone="no"?><!DOCTYPE svg PUBLIC "-//W3C//DTD SVG 1.1//EN" "http://www.w3.org/Graphics/SVG/1.1/DTD/svg11.dtd"><svg width="100%" height="100%" viewBox="0 0 24 24" version="1.1" xmlns="http://www.w3.org/2000/svg" xmlns:xlink="http://www.w3.org/1999/xlink" xml:space="preserve" xmlns:serif="http://www.serif.com/" style="fill-rule:evenodd;clip-rule:evenodd;stroke-linejoin:round;stroke-miterlimit:2;"><path d="M9.85,8.12c-0.37,-0.15 -0.77,-0.21 -1.18,-0.2c-0.26,0 -0.49,0 -0.68,0.01c-0.2,-0.01 -0.34,0 -0.41,0.01l0,3.36c0.14,0.01 0.27,0.02 0.39,0.02l0.53,-0c0.39,-0 0.78,-0.06 1.15,-0.18c0.32,-0.09 0.6,-0.28 0.82,-0.53c0.21,-0.25 0.31,-0.59 0.31,-1.03c0.01,-0.31 -0.07,-0.62 -0.23,-0.89c-0.17,-0.26 -0.41,-0.46 -0.7,-0.57Zm9.9,-8.12l-15.5,0c-2.35,0 -4.25,1.9 -4.25,4.25l0,14.899c0,2.35 1.9,4.25 4.25,4.25l15.5,-0c2.35,-0 4.25,-1.9 4.25,-4.25l0,-14.899c0,-2.35 -1.9,-4.25 -4.25,-4.25Zm-7.391,11.65c-0.399,0.56 -0.959,0.98 -1.609,1.22c-0.68,0.25 -1.43,0.34 -2.25,0.34c-0.24,0 -0.4,0 -0.5,-0.01c-0.1,-0.01 -0.24,-0.01 -0.43,-0.01l0,3.209c0.01,0.07 -0.04,0.131 -0.11,0.141l-1.94,0c-0.08,0 -0.12,-0.041 -0.12,-0.131l0,-10.289c0,-0.07 0.03,-0.11 0.1,-0.11c0.17,0 0.33,0 0.56,-0.01c0.24,-0.01 0.49,-0.01 0.76,-0.02c0.27,-0.01 0.56,-0.01 0.87,-0.02c0.31,-0.01 0.61,-0.01 0.91,-0.01c0.82,0 1.5,0.1 2.06,0.31c0.5,0.17 0.96,0.45 1.34,0.82c0.32,0.32 0.57,0.71 0.73,1.14c0.149,0.42 0.229,0.85 0.229,1.3c0.001,0.86 -0.199,1.57 -0.6,2.13Zm7.091,3.89c-0.28,0.4 -0.671,0.709 -1.12,0.891c-0.49,0.209 -1.09,0.318 -1.811,0.318c-0.459,-0 -0.91,-0.039 -1.359,-0.129c-0.35,-0.061 -0.7,-0.17 -1.02,-0.32c-0.07,-0.039 -0.121,-0.109 -0.111,-0.189l0,-1.74c0,-0.029 0.011,-0.07 0.041,-0.09c0.029,-0.02 0.06,-0.01 0.09,0.01c0.39,0.23 0.8,0.391 1.24,0.49c0.379,0.1 0.779,0.15 1.18,0.15c0.38,-0 0.65,-0.051 0.83,-0.141c0.16,-0.07 0.27,-0.24 0.27,-0.42c0,-0.141 -0.08,-0.27 -0.24,-0.4c-0.16,-0.129 -0.489,-0.279 -0.979,-0.471c-0.51,-0.18 -0.979,-0.42 -1.42,-0.719c-0.31,-0.221 -0.569,-0.51 -0.761,-0.85c-0.159,-0.32 -0.239,-0.67 -0.229,-1.021c0,-0.43 0.12,-0.84 0.341,-1.21c0.25,-0.4 0.619,-0.72 1.049,-0.92c0.469,-0.239 1.059,-0.349 1.769,-0.349c0.41,-0 0.83,0.03 1.24,0.09c0.3,0.04 0.59,0.12 0.86,0.23c0.039,0.01 0.08,0.05 0.1,0.09c0.01,0.04 0.02,0.08 0.02,0.12l-0,1.63c-0,0.04 -0.02,0.08 -0.05,0.1c-0.09,0.02 -0.14,0.02 -0.18,-0c-0.3,-0.16 -0.62,-0.27 -0.96,-0.34c-0.37,-0.08 -0.74,-0.13 -1.12,-0.13c-0.2,-0.01 -0.41,0.02 -0.601,0.07c-0.129,0.03 -0.24,0.1 -0.31,0.2c-0.05,0.08 -0.08,0.18 -0.08,0.27c-0,0.09 0.04,0.18 0.101,0.26c0.09,0.11 0.209,0.2 0.34,0.27c0.229,0.12 0.47,0.23 0.709,0.33c0.541,0.18 1.061,0.43 1.541,0.73c0.33,0.209 0.6,0.49 0.789,0.83c0.16,0.318 0.24,0.67 0.23,1.029c0.011,0.471 -0.129,0.94 -0.389,1.331Z" style="fill:#001e36;fill-rule:nonzero;"/></svg>