<?xml version="1.0" encoding="UTF-8" standalone="no"?><!DOCTYPE svg PUBLIC "-//W3C//DTD SVG 1.1//EN" "http://www.w3.org/Graphics/SVG/1.1/DTD/svg11.dtd"><svg width="100%" height="100%" viewBox="0 0 24 24" version="1.1" xmlns="http://www.w3.org/2000/svg" xmlns:xlink="http://www.w3.org/1999/xlink" xml:space="preserve" xmlns:serif="http://www.serif.com/" style="fill-rule:evenodd;clip-rule:evenodd;stroke-linejoin:round;stroke-miterlimit:2;"><path d="M18.835,0l-13.67,0c-2.833,0 -5.165,2.332 -5.165,5.165l0,13.07c-0,2.833 2.332,5.165 5.165,5.165l13.67,0c2.833,0 5.165,-2.332 5.165,-5.165l0,-13.07c0,-2.833 -2.332,-5.165 -5.165,-5.165Zm-6.106,16.491l-2.287,0c-0.16,0 -0.274,-0.006 -0.338,-0.113c-0.215,-0.419 -0.43,-0.835 -0.644,-1.248c-0.221,-0.425 -0.449,-0.846 -0.684,-1.264c-0.244,-0.432 -0.483,-0.867 -0.717,-1.305l-0.016,0c-0.217,0.432 -0.439,0.862 -0.668,1.288c-0.23,0.429 -0.459,0.856 -0.684,1.28c-0.225,0.424 -0.455,0.846 -0.691,1.264c-0.044,0.097 -0.119,0.107 -0.227,0.107l-2.205,0c-0.043,0 -0.067,0.017 -0.072,-0.026c-0.006,-0.039 0.003,-0.079 0.024,-0.113l3.107,-5.105l-3.027,-5.118c-0.033,-0.043 -0.038,-0.078 -0.016,-0.107c0.024,-0.028 0.06,-0.043 0.097,-0.04l2.27,0c0.049,-0.002 0.099,0.006 0.145,0.024c0.038,0.022 0.071,0.052 0.096,0.089c0.193,0.43 0.408,0.859 0.644,1.288c0.236,0.429 0.475,0.853 0.716,1.272c0.241,0.419 0.464,0.843 0.668,1.272l0.016,0c0.213,-0.44 0.43,-0.869 0.652,-1.288c0.222,-0.419 0.447,-0.84 0.676,-1.264c0.231,-0.425 0.453,-0.847 0.668,-1.264c0.012,-0.04 0.034,-0.077 0.064,-0.106c0.04,-0.02 0.085,-0.028 0.129,-0.024l2.109,0c0.049,-0.012 0.099,0.018 0.112,0.067c0.009,0.035 -0.004,0.071 -0.031,0.094l0.001,0.004l-2.995,4.943l3.204,5.249c0.021,0.037 0.026,0.08 0.016,0.121c-0.01,0.036 -0.047,0.012 -0.112,0.023Zm7.681,-0.42c-0.523,0.218 -1.068,0.38 -1.626,0.483c-0.51,0.095 -1.028,0.143 -1.547,0.145c-0.741,0.011 -1.475,-0.143 -2.149,-0.45c-0.628,-0.291 -1.153,-0.765 -1.506,-1.361c-0.388,-0.695 -0.577,-1.483 -0.548,-2.278c-0.006,-0.739 0.183,-1.466 0.548,-2.109c0.376,-0.655 0.929,-1.19 1.595,-1.545c0.842,-0.44 1.789,-0.638 2.737,-0.572c0.086,0.005 0.188,0.013 0.306,0.024l0,-3.172c0,-0.075 0.032,-0.113 0.097,-0.113l2.028,0c0.047,-0.006 0.09,0.026 0.097,0.073c0.001,0.008 0.001,0.016 0,0.024l0,9.517c0,0.183 0.008,0.381 0.024,0.596c0.016,0.214 0.03,0.407 0.04,0.579c0.004,0.068 -0.034,0.131 -0.096,0.159Zm-2.457,-5.812c0.09,0.009 0.179,0.025 0.266,0.048l0,4.395c-0.115,0.034 -0.234,0.056 -0.354,0.064c-0.139,0.011 -0.279,0.017 -0.419,0.016c-0.282,0.001 -0.562,-0.042 -0.83,-0.129c-0.253,-0.08 -0.485,-0.217 -0.676,-0.402c-0.199,-0.201 -0.353,-0.442 -0.451,-0.708c-0.12,-0.33 -0.177,-0.68 -0.169,-1.031c-0.021,-0.448 0.094,-0.891 0.33,-1.272c0.213,-0.316 0.504,-0.571 0.845,-0.741c0.35,-0.173 0.736,-0.262 1.127,-0.258c0.111,0.002 0.221,0.007 0.331,0.018Z" style="fill:#470137;fill-rule:nonzero;"/></svg>