<?xml version="1.0" encoding="UTF-8" standalone="no"?><!DOCTYPE svg PUBLIC "-//W3C//DTD SVG 1.1//EN" "http://www.w3.org/Graphics/SVG/1.1/DTD/svg11.dtd"><svg width="100%" height="100%" viewBox="0 0 24 24" version="1.1" xmlns="http://www.w3.org/2000/svg" xmlns:xlink="http://www.w3.org/1999/xlink" xml:space="preserve" xmlns:serif="http://www.serif.com/" style="fill-rule:evenodd;clip-rule:evenodd;stroke-linejoin:round;stroke-miterlimit:2;"><path d="M10.44,0l-10.44,18.083l0,5.197c-0,0.392 0.321,0.716 0.713,0.72l10.023,0l-5.036,-8.723l8.82,-15.277l-4.08,0Zm5.16,0l-4.86,8.418l3.718,6.439l9.542,0l0,-14.139c-0.001,-0.394 -0.326,-0.718 -0.72,-0.718l-7.68,0Zm-5.4,9.353l-2.064,3.575c-0.23,0.398 -0.23,0.89 0,1.288c0.23,0.4 0.656,0.64 1.117,0.64l4.125,0l-3.178,-5.503Zm-3.122,6.44l4.738,8.207l11.471,0c0.392,-0.004 0.712,-0.326 0.713,-0.718l0,-7.49l-16.922,0.001Z" style="fill:#1b72be;fill-rule:nonzero;"/></svg>