<?xml version="1.0" encoding="UTF-8" standalone="no"?><!DOCTYPE svg PUBLIC "-//W3C//DTD SVG 1.1//EN" "http://www.w3.org/Graphics/SVG/1.1/DTD/svg11.dtd"><svg width="100%" height="100%" viewBox="0 0 24 24" version="1.1" xmlns="http://www.w3.org/2000/svg" xmlns:xlink="http://www.w3.org/1999/xlink" xml:space="preserve" xmlns:serif="http://www.serif.com/" style="fill-rule:evenodd;clip-rule:evenodd;stroke-linejoin:round;stroke-miterlimit:2;"><path d="M10.44,0l-1.08,1.87l12.776,22.13l1.144,0c0.395,0 0.72,-0.325 0.72,-0.72l-0,-3.119l-11.64,-20.161l-1.92,0Zm3,0l10.56,18.29l0,-17.57c0,-0.395 -0.325,-0.72 -0.72,-0.72l-9.84,0Zm-4.62,2.806l-1.98,3.43l10.136,17.764l4.08,0l-12.236,-21.194Zm-2.58,4.468l-1.48,2.563c-0.347,0.6 -0.347,1.342 0,1.942c1.771,3.063 7.056,12.221 7.056,12.221l4.08,0l-9.656,-16.726Zm-2.58,4.47l-3.66,6.338l0,5.197c0,0.397 0.323,0.72 0.72,0.72l10.016,0l-7.076,-12.255Z" style="fill:#c9294d;fill-rule:nonzero;"/></svg>