<?xml version="1.0" encoding="UTF-8" standalone="no"?><!DOCTYPE svg PUBLIC "-//W3C//DTD SVG 1.1//EN" "http://www.w3.org/Graphics/SVG/1.1/DTD/svg11.dtd"><svg width="100%" height="100%" viewBox="0 0 24 24" version="1.1" xmlns="http://www.w3.org/2000/svg" xmlns:xlink="http://www.w3.org/1999/xlink" xml:space="preserve" xmlns:serif="http://www.serif.com/" style="fill-rule:evenodd;clip-rule:evenodd;stroke-linejoin:round;stroke-miterlimit:2;"><path d="M10.44,0l-0.48,0.831l5.88,10.185l6.36,-11.016l-11.76,0Zm12.84,0l-8.577,14.856l9.297,0l0,-14.145c-0.005,-0.392 -0.328,-0.711 -0.72,-0.711Zm-13.86,1.767l-3.66,6.339l7.32,0l-3.66,-6.339Zm3.611,7.257l-2.066,0c-0.36,0.005 -0.7,0.216 -0.879,0.523l-1.083,1.88l-0.008,0.014c-0.176,0.317 -0.176,0.703 -0,1.02c0.364,0.631 0.729,1.263 1.093,1.894c0.184,0.31 0.53,0.5 0.885,0.501c0.002,0 1.38,0.002 2.067,-0.001c0.36,-0.005 0.699,-0.205 0.878,-0.512c0.364,-0.631 0.731,-1.261 1.093,-1.894c0.176,-0.314 0.17,-0.703 -0.007,-1.011l-0.01,-0.015l-1.078,-1.87l-0.006,-0.009c-0.184,-0.313 -0.516,-0.51 -0.879,-0.52Zm-7.811,0.016l-5.22,9.042l-0,0.39l0.003,4.871c0.031,0.349 0.312,0.628 0.662,0.655l8.635,-14.958l-4.08,0Zm2.94,3.845l-6.424,11.115l12.84,0l-6.416,-11.115Zm2.757,2.906l4.74,8.209l7.623,0c0.395,0 0.72,-0.325 0.72,-0.72l-0,-7.488l-13.083,-0.001Z" style="fill:#7e4dd2;fill-rule:nonzero;"/></svg>