<?xml version="1.0" encoding="UTF-8" standalone="no"?><!DOCTYPE svg PUBLIC "-//W3C//DTD SVG 1.1//EN" "http://www.w3.org/Graphics/SVG/1.1/DTD/svg11.dtd"><svg width="100%" height="100%" viewBox="0 0 20 20" version="1.1" xmlns="http://www.w3.org/2000/svg" xmlns:xlink="http://www.w3.org/1999/xlink" xml:space="preserve" xmlns:serif="http://www.serif.com/" style="fill-rule:evenodd;clip-rule:evenodd;stroke-linejoin:round;stroke-miterlimit:2;"><path d="M10,0c-5.511,0 -10,4.489 -10,10c0,5.511 4.489,10 10,10c5.511,0 10,-4.489 10,-10c0,-5.511 -4.489,-10 -10,-10Zm0,2c4.43,0 8,3.57 8,8c0,4.014 -2.935,7.313 -6.781,7.898l-0,-5.513l2.328,-0l0.365,-2.365l-2.693,-0l-0,-1.293c-0,-0.983 0.32,-1.856 1.24,-1.856l1.477,0l-0,-2.064c-0.26,-0.035 -0.809,-0.112 -1.846,-0.112c-2.166,0 -3.436,1.144 -3.436,3.75l0,1.575l-2.226,-0l-0,2.365l2.226,-0l0,5.494c-3.784,-0.638 -6.654,-3.909 -6.654,-7.879c0,-4.43 3.57,-8 8,-8Z" style="fill:#2b2b2b;fill-rule:nonzero;"/></svg>