<?xml version="1.0" encoding="UTF-8" standalone="no"?><!DOCTYPE svg PUBLIC "-//W3C//DTD SVG 1.1//EN" "http://www.w3.org/Graphics/SVG/1.1/DTD/svg11.dtd"><svg width="100%" height="100%" viewBox="0 0 129 129" version="1.1" xmlns="http://www.w3.org/2000/svg" xmlns:xlink="http://www.w3.org/1999/xlink" xml:space="preserve" xmlns:serif="http://www.serif.com/" style="fill-rule:evenodd;clip-rule:evenodd;stroke-linejoin:round;stroke-miterlimit:2;"><path d="M128.149,10.399c-0,-5.74 -4.66,-10.399 -10.399,-10.399l-107.351,0c-5.74,0 -10.399,4.659 -10.399,10.399l0,107.351c0,5.739 4.659,10.399 10.399,10.399l107.351,-0c5.739,-0 10.399,-4.66 10.399,-10.399l-0,-107.351Zm-7,-0l-0,107.351c-0,1.876 -1.523,3.399 -3.399,3.399l-107.351,-0c-1.876,-0 -3.399,-1.523 -3.399,-3.399c-0,-0 -0,-107.351 -0,-107.351c-0,-1.876 1.523,-3.399 3.399,-3.399l107.351,0c1.876,0 3.399,1.523 3.399,3.399Zm-70.941,39.077l19.441,-0l-0,6.67c2.363,-2.853 5.222,-4.992 8.577,-6.419c3.355,-1.426 6.862,-2.139 10.521,-2.139c7.7,-0 13.399,2.202 17.097,6.607c3.698,4.405 5.546,10.383 5.546,17.934l0,37.755l-20.127,-0l0,-34.861c0,-6.796 -2.821,-10.194 -8.463,-10.194c-2.592,0 -4.955,0.651 -7.09,1.951c-2.135,1.301 -3.926,3.293 -5.375,5.978l0,37.126l-20.127,-0l-0,-60.408Zm-32.695,-0l22.15,-0l-0,60.408l-22.15,-0l0,-60.408Zm11.075,-8.055c-3.356,0 -6.167,-1.09 -8.432,-3.272c-2.265,-2.181 -3.398,-4.95 -3.398,-8.306c0,-3.272 1.133,-6.02 3.398,-8.243c2.265,-2.223 5.076,-3.335 8.432,-3.335c3.272,-0 6.062,1.112 8.369,3.335c2.307,2.223 3.461,4.971 3.461,8.243c-0,3.272 -1.154,6.02 -3.461,8.243c-2.307,2.224 -5.097,3.335 -8.369,3.335Z" style="fill:#2b2b2b;"/></svg>