<?xml version="1.0" encoding="UTF-8" standalone="no"?><!DOCTYPE svg PUBLIC "-//W3C//DTD SVG 1.1//EN" "http://www.w3.org/Graphics/SVG/1.1/DTD/svg11.dtd"><svg width="100%" height="100%" viewBox="0 0 284 65" version="1.1" xmlns="http://www.w3.org/2000/svg" xmlns:xlink="http://www.w3.org/1999/xlink" xml:space="preserve" xmlns:serif="http://www.serif.com/" style="fill-rule:evenodd;clip-rule:evenodd;stroke-linejoin:round;stroke-miterlimit:2;"><path d="M141.68,16.25c-11.04,0 -19,7.2 -19,18c0,10.8 8.96,18 20,18c6.67,0 12.55,-2.64 16.19,-7.09l-7.65,-4.42c-2.02,2.21 -5.09,3.5 -8.54,3.5c-4.79,0 -8.86,-2.5 -10.37,-6.5l28.02,0c0.22,-1.12 0.35,-2.28 0.35,-3.5c0,-10.79 -7.96,-17.99 -19,-17.99Zm-9.46,14.5c1.25,-3.99 4.67,-6.5 9.45,-6.5c4.79,0 8.21,2.51 9.45,6.5l-18.9,0Zm117.14,-14.5c-11.04,0 -19,7.2 -19,18c0,10.8 8.96,18 20,18c6.67,0 12.55,-2.64 16.19,-7.09l-7.65,-4.42c-2.02,2.21 -5.09,3.5 -8.54,3.5c-4.79,0 -8.86,-2.5 -10.37,-6.5l28.02,0c0.22,-1.12 0.35,-2.28 0.35,-3.5c0,-10.79 -7.96,-17.99 -19,-17.99Zm-9.45,14.5c1.25,-3.99 4.67,-6.5 9.45,-6.5c4.79,0 8.21,2.51 9.45,6.5l-18.9,0Zm-39.03,3.5c0,6 3.92,10 10,10c4.12,0 7.21,-1.87 8.8,-4.92l7.68,4.43c-3.18,5.3 -9.14,8.49 -16.48,8.49c-11.05,0 -19,-7.2 -19,-18c0,-10.8 7.96,-18 19,-18c7.34,0 13.29,3.19 16.48,8.49l-7.68,4.43c-1.59,-3.05 -4.68,-4.92 -8.8,-4.92c-6.07,0 -10,4 -10,10Zm82.48,-29l0,46l-9,0l0,-46l9,0Zm-245.77,-5l36.95,64l-73.9,0l36.95,-64Zm92.38,5l-27.71,48l-27.71,-48l10.39,0l17.32,30l17.32,-30l10.39,0Zm58.91,12l0,9.69c-1,-0.29 -2.06,-0.49 -3.2,-0.49c-5.81,0 -10,4 -10,10l0,14.8l-9,0l0,-34l9,0l0,9.2c0,-5.08 5.91,-9.2 13.2,-9.2Z" style="fill-rule:nonzero;"/></svg>