<?xml version="1.0" encoding="UTF-8" standalone="no"?><!DOCTYPE svg PUBLIC "-//W3C//DTD SVG 1.1//EN" "http://www.w3.org/Graphics/SVG/1.1/DTD/svg11.dtd"><svg width="100%" height="100%" viewBox="0 0 512 512" version="1.1" xmlns="http://www.w3.org/2000/svg" xmlns:xlink="http://www.w3.org/1999/xlink" xml:space="preserve" xmlns:serif="http://www.serif.com/" style="fill-rule:evenodd;clip-rule:evenodd;stroke-linejoin:round;stroke-miterlimit:2;"><g><g><path d="M437.019,74.981c-48.352,-48.353 -112.639,-74.981 -181.019,-74.981c-68.38,0 -132.668,26.628 -181.019,74.98c-48.353,48.352 -74.981,112.64 -74.981,181.02c0,68.38 26.628,132.667 74.981,181.019c48.351,48.352 112.639,74.98 181.019,74.98c68.381,0 132.667,-26.628 181.02,-74.981c48.351,-48.351 74.98,-112.639 74.98,-181.019c0,-68.38 -26.629,-132.667 -74.981,-181.018Zm-340.803,21.235c22.511,-22.511 48.938,-39.681 77.742,-50.888c-7.672,9.578 -14.851,20.587 -21.43,32.969c-7.641,14.38 -14.234,30.173 -19.725,47.042c-19.022,-3.157 -36.647,-7.039 -52.393,-11.595c4.935,-6.066 10.2,-11.922 15.806,-17.528Zm-33.987,43.369c18.417,5.897 39.479,10.87 62.461,14.809c-6.4,27.166 -10.167,56.399 -11.066,86.591l-83.088,-0c2.36,-36.233 13.242,-70.813 31.693,-101.4Zm-1.635,230.053c-17.455,-29.899 -27.769,-63.481 -30.059,-98.623l83.146,-0c0.982,29.329 4.674,57.731 10.858,84.186c-23.454,3.802 -45.045,8.649 -63.945,14.437Zm35.622,46.146c-6.38,-6.381 -12.322,-13.081 -17.831,-20.055c16.323,-4.526 34.571,-8.359 54.214,-11.433c5.53,17.103 12.194,33.105 19.928,47.662c7.17,13.493 15.053,25.349 23.51,35.505c-29.61,-11.183 -56.769,-28.629 -79.821,-51.679Zm144.768,62.331c-22.808,-6.389 -44.384,-27.217 -61.936,-60.249c-6.139,-11.552 -11.531,-24.155 -16.15,-37.587c24.73,-2.722 51.045,-4.331 78.086,-4.709l0,102.545Zm0,-132.578c-29.988,0.409 -59.217,2.292 -86.59,5.507c-6.038,-24.961 -9.671,-51.978 -10.668,-80.028l97.259,-0l0,74.521l-0.001,-0Zm0,-104.553l-97.315,-0c0.911,-28.834 4.602,-56.605 10.828,-82.201c27.198,3.4 56.366,5.468 86.487,6.06l0,76.141Zm0,-106.176c-27.146,-0.547 -53.403,-2.317 -77.958,-5.205c4.591,-13.292 9.941,-25.768 16.022,-37.215c17.551,-33.032 39.128,-53.86 61.936,-60.249l0,102.669Zm209.733,6.372c17.874,30.193 28.427,64.199 30.749,99.804l-83.088,0c-0.889,-29.844 -4.584,-58.749 -10.85,-85.647c23.133,-3.736 44.456,-8.489 63.189,-14.157Zm-34.934,-44.964c6.029,6.029 11.661,12.349 16.914,18.91c-16.073,4.389 -33.972,8.114 -53.204,11.112c-5.548,-17.208 -12.243,-33.305 -20.02,-47.941c-6.579,-12.382 -13.758,-23.391 -21.43,-32.969c28.802,11.207 55.23,28.377 77.74,50.888Zm-144.767,174.8l97.259,0c-1.004,28.268 -4.686,55.49 -10.81,80.612c-27.194,-3.381 -56.349,-5.43 -86.449,-6.006l0,-74.606Zm0,-30.032l0,-76.041c30.005,-0.394 59.257,-2.261 86.656,-5.464c6.125,25.403 9.756,52.932 10.659,81.505l-97.315,0Zm-0.002,-208.845l0.001,0c22.808,6.389 44.384,27.217 61.936,60.249c6.178,11.627 11.601,24.318 16.24,37.848c-24.763,2.712 -51.108,4.309 -78.177,4.674l0,-102.771Zm0.002,445.976l0,-102.458c27.12,0.532 53.357,2.286 77.903,5.156c-4.579,13.232 -9.911,25.654 -15.967,37.053c-17.552,33.032 -39.128,53.86 -61.936,60.249Zm144.767,-62.331c-23.051,23.051 -50.21,40.496 -79.821,51.678c8.457,-10.156 16.34,-22.011 23.51,-35.504c7.62,-14.341 14.198,-30.088 19.68,-46.906c19.465,3.213 37.473,7.186 53.515,11.859c-5.243,6.546 -10.866,12.854 -16.884,18.873Zm34.823,-44.775c-18.635,-5.991 -40,-11.032 -63.326,-15.01c6.296,-26.68 10.048,-55.36 11.041,-84.983l83.146,0c-2.328,35.678 -12.918,69.753 -30.861,99.993Z" style="fill:#2b2b2b;fill-rule:nonzero;"/></g></g></svg>